<svg xmlns="http://www.w3.org/2000/svg" xmlns:xlink="http://www.w3.org/1999/xlink" version="1.1" width="1000" height="1000" viewBox="0 0 1000 1000" xml:space="preserve">
<desc>Created with Fabric.js 3.5.0</desc>
<defs>
</defs>
<rect x="0" y="0" width="100%" height="100%" fill="#ffffff"/>
<g transform="matrix(0.2364 0 0 0.2364 206.0081 98.6219)" id="150118">
<g style="" vector-effect="non-scaling-stroke">
		<g transform="matrix(6.4357 0 0 6.4357 263.0065 0.9048)" id="text-0">
<path style="stroke: none; stroke-width: 1; stroke-dasharray: none; stroke-linecap: butt; stroke-dashoffset: 0; stroke-linejoin: miter; stroke-miterlimit: 4; is-custom-font: none; font-file-url: none; fill: rgb(255,205,25); fill-rule: nonzero; opacity: 1;" transform=" translate(-76.295, 17.1)" d="M 23.35 0 L 7.9 0 L 7.9 -1.05 L 9.9 -1.45 Q 12 -1.9 12 -3.9 L 12 -3.9 L 12 -17.55 Q 12 -21.05 12 -24.55 Q 12 -28.05 11.95 -31.55 L 11.95 -31.55 L 8 -31.55 Q 6.4 -31.55 5.65 -30.7 Q 4.9 -29.85 4.15 -28.3 L 4.15 -28.3 L 2.4 -24.6 L 1 -24.6 L 1.25 -33.05 L 29.95 -33.05 L 30.2 -24.6 L 28.8 -24.6 L 27.05 -28.3 Q 26.3 -29.85 25.55 -30.7 Q 24.8 -31.55 23.2 -31.55 L 23.2 -31.55 L 19.2 -31.55 L 19.2 -3.9 Q 19.2 -1.85 21.3 -1.45 L 21.3 -1.45 L 23.35 -1.05 L 23.35 0 Z M 44.75 0 L 32.25 0 L 32.25 -0.95 L 33 -1.2 Q 34 -1.45 34.37 -2.05 Q 34.75 -2.65 34.75 -3.65 L 34.75 -3.65 L 34.75 -18.3 Q 34.7 -19.4 34.35 -19.98 Q 34 -20.55 33 -20.75 L 33 -20.75 L 32.25 -20.95 L 32.25 -21.85 L 40.4 -24.75 L 41 -24.2 L 41.45 -19.8 L 41.45 -19.45 Q 42.2 -20.85 43.35 -22.05 Q 44.5 -23.25 45.85 -24 Q 47.2 -24.75 48.55 -24.75 L 48.55 -24.75 Q 50.45 -24.75 51.4 -23.75 Q 52.35 -22.75 52.35 -21.2 L 52.35 -21.2 Q 52.35 -19.5 51.4 -18.63 Q 50.45 -17.75 49.1 -17.75 L 49.1 -17.75 Q 47.1 -17.75 45.65 -19.55 L 45.65 -19.55 L 45.55 -19.65 Q 45.05 -20.25 44.42 -20.33 Q 43.8 -20.4 43.2 -19.7 L 43.2 -19.7 Q 42.7 -19.2 42.27 -18.53 Q 41.85 -17.85 41.5 -16.95 L 41.5 -16.95 L 41.5 -3.85 Q 41.5 -2.9 41.9 -2.27 Q 42.3 -1.65 43.25 -1.4 L 43.25 -1.4 L 44.75 -0.95 L 44.75 0 Z M 61.25 0.7 L 61.25 0.7 Q 58.4 0.7 56.42 -0.93 Q 54.45 -2.55 54.45 -5.6 L 54.45 -5.6 Q 54.45 -8 56.77 -10.03 Q 59.1 -12.05 64.1 -13 L 64.1 -13 Q 64.95 -13.2 66.07 -13.38 Q 67.2 -13.55 68.3 -13.75 L 68.3 -13.75 L 68.3 -17.3 Q 68.3 -20.7 67.45 -22 Q 66.6 -23.3 64.75 -23.3 L 64.75 -23.3 L 64.6 -23.3 Q 63.45 -23.3 62.77 -22.58 Q 62.1 -21.85 61.9 -20.2 L 61.9 -20.2 L 61.75 -19.55 Q 61.6 -17.55 60.7 -16.63 Q 59.8 -15.7 58.45 -15.7 L 58.45 -15.7 Q 57.2 -15.7 56.37 -16.48 Q 55.55 -17.25 55.55 -18.5 L 55.55 -18.5 Q 55.55 -20.55 56.95 -21.95 Q 58.35 -23.35 60.67 -24.05 Q 63 -24.75 65.7 -24.75 L 65.7 -24.75 Q 70.15 -24.75 72.5 -22.6 Q 74.85 -20.45 74.85 -15.6 L 74.85 -15.6 L 74.85 -4.45 Q 74.85 -2.3 76.9 -2.3 L 76.9 -2.3 L 78.05 -2.3 L 78.55 -1.75 Q 77.65 -0.6 76.55 0.03 Q 75.45 0.65 73.55 0.65 L 73.55 0.65 Q 71.4 0.65 70.12 -0.38 Q 68.85 -1.4 68.45 -3.1 L 68.45 -3.1 Q 66.85 -1.4 65.3 -0.35 Q 63.75 0.7 61.25 0.7 Z M 64.15 -2.5 L 64.15 -2.5 Q 65.15 -2.5 66.05 -2.95 Q 66.95 -3.4 68.3 -4.45 L 68.3 -4.45 L 68.3 -12.45 Q 67 -12.25 65.65 -11.95 L 65.65 -11.95 Q 63.5 -11.45 62.17 -10.1 Q 60.85 -8.75 60.85 -6.45 L 60.85 -6.45 Q 60.85 -4.45 61.77 -3.48 Q 62.7 -2.5 64.15 -2.5 Z M 85.49 -27.5 L 85.49 -27.5 Q 83.84 -27.5 82.69 -28.55 Q 81.54 -29.6 81.54 -31.2 L 81.54 -31.2 Q 81.54 -32.85 82.69 -33.88 Q 83.84 -34.9 85.49 -34.9 L 85.49 -34.9 Q 87.14 -34.9 88.29 -33.88 Q 89.44 -32.85 89.44 -31.2 L 89.44 -31.2 Q 89.44 -29.6 88.29 -28.55 Q 87.14 -27.5 85.49 -27.5 Z M 91.19 0 L 79.74 0 L 79.74 -0.95 L 80.49 -1.15 Q 81.49 -1.45 81.84 -2.05 Q 82.19 -2.65 82.24 -3.65 L 82.24 -3.65 L 82.24 -12.85 Q 82.24 -14.4 82.24 -15.73 Q 82.24 -17.05 82.19 -18.45 L 82.19 -18.45 Q 82.19 -19.45 81.82 -20.03 Q 81.44 -20.6 80.44 -20.8 L 80.44 -20.8 L 79.74 -20.95 L 79.74 -21.85 L 88.49 -24.75 L 89.09 -24.2 L 88.94 -17.1 L 88.94 -3.6 Q 88.94 -2.6 89.32 -2 Q 89.69 -1.4 90.64 -1.1 L 90.64 -1.1 L 91.19 -0.95 L 91.19 0 Z M 104.84 0 L 93.39 0 L 93.39 -0.95 L 94.19 -1.15 Q 95.84 -1.65 95.84 -3.6 L 95.84 -3.6 L 95.84 -18.35 Q 95.79 -19.4 95.49 -19.98 Q 95.19 -20.55 94.19 -20.75 L 94.19 -20.75 L 93.39 -20.95 L 93.39 -21.85 L 101.49 -24.75 L 102.09 -24.2 L 102.44 -21.1 Q 104.24 -22.7 106.47 -23.73 Q 108.69 -24.75 110.84 -24.75 L 110.84 -24.75 Q 114.14 -24.75 115.92 -22.95 Q 117.69 -21.15 117.69 -17.45 L 117.69 -17.45 L 117.69 -3.55 Q 117.69 -1.6 119.49 -1.1 L 119.49 -1.1 L 120.04 -0.95 L 120.04 0 L 108.54 0 L 108.54 -0.95 L 109.29 -1.15 Q 110.94 -1.7 110.94 -3.6 L 110.94 -3.6 L 110.94 -18.45 Q 110.94 -20.2 110.19 -21 Q 109.44 -21.8 107.69 -21.8 L 107.69 -21.8 Q 105.24 -21.8 102.59 -19.65 L 102.59 -19.65 L 102.59 -3.55 Q 102.59 -1.6 104.34 -1.1 L 104.34 -1.1 L 104.84 -0.95 L 104.84 0 Z M 128.99 0 L 121.74 0 L 121.74 -1.05 L 122.64 -1.3 Q 123.74 -1.6 124.36 -2.18 Q 124.99 -2.75 125.64 -3.75 L 125.64 -3.75 L 133.14 -15.3 L 124.84 -29.35 Q 124.24 -30.35 123.79 -30.85 Q 123.34 -31.35 122.34 -31.7 L 122.34 -31.7 L 121.49 -32 L 121.49 -33.05 L 134.64 -33.05 L 134.64 -32 L 133.64 -31.75 Q 132.59 -31.45 132.49 -30.7 Q 132.39 -29.95 132.99 -28.9 L 132.99 -28.9 L 137.94 -20.6 L 143.14 -28.85 Q 143.79 -29.9 143.86 -30.73 Q 143.94 -31.55 142.79 -31.8 L 142.79 -31.8 L 141.94 -32 L 141.94 -33.05 L 149.34 -33.05 L 149.34 -32 L 148.19 -31.7 Q 147.14 -31.45 146.56 -30.88 Q 145.99 -30.3 145.39 -29.3 L 145.39 -29.3 L 138.79 -19.1 L 147.84 -3.75 Q 148.39 -2.75 149.01 -2.23 Q 149.64 -1.7 150.59 -1.35 L 150.59 -1.35 L 151.59 -1.05 L 151.59 0 L 137.89 0 L 137.89 -1.05 L 138.89 -1.25 Q 139.99 -1.5 140.16 -2.3 Q 140.34 -3.1 139.69 -4.2 L 139.69 -4.2 L 133.99 -13.75 L 127.89 -4.15 Q 127.24 -3.05 127.31 -2.25 Q 127.39 -1.45 128.39 -1.2 L 128.39 -1.2 L 128.99 -1.05 L 128.99 0 Z" stroke-linecap="round"/>
</g>
		<g transform="matrix(11.9959 0 0 11.9959 -438.741 122.3924)" id="icon-0">
<path style="stroke: none; stroke-width: 1; stroke-dasharray: none; stroke-linecap: butt; stroke-dashoffset: 0; stroke-linejoin: miter; stroke-miterlimit: 4; is-custom-font: none; font-file-url: none; fill: rgb(255,210,48); fill-rule: nonzero; opacity: 1;" transform=" translate(-57.8635, -57.627)" d="M 57.865 59.288 c -0.918 0 -1.662 -0.745 -1.662 -1.659 c 0 -0.917 0.744 -1.663 1.662 -1.663 c 0.914 0 1.659 0.745 1.659 1.663 C 59.524 58.543 58.779 59.288 57.865 59.288 z M 57.865 56.971 c -0.365 0 -0.658 0.294 -0.658 0.659 c 0 0.361 0.293 0.655 0.658 0.655 c 0.361 0 0.654 -0.294 0.654 -0.655 C 58.52 57.265 58.227 56.971 57.865 56.971 z" stroke-linecap="round"/>
</g>
		<g transform="matrix(11.9959 0 0 11.9959 -595.1978 -17.4863)" id="icon-0">
<path style="stroke: none; stroke-width: 1; stroke-dasharray: none; stroke-linecap: butt; stroke-dashoffset: 0; stroke-linejoin: miter; stroke-miterlimit: 4; is-custom-font: none; font-file-url: none; fill: rgb(255,210,48); fill-rule: nonzero; opacity: 1;" transform=" translate(-44.821, -45.9665)" d="M 50.783 68.43 H 38.861 c -0.16 0 -0.314 -0.023 -0.471 -0.055 c -0.471 -0.09 -0.961 -0.526 -0.965 -1.004 c -0.02 -2.396 -1.533 -4.392 -3.372 -4.447 c -0.482 -0.016 -0.886 -0.376 -0.957 -0.854 c -0.079 -0.525 -0.126 -1.063 -0.126 -1.616 V 31.48 c 0 -0.553 0.047 -1.09 0.126 -1.616 c 0.071 -0.479 0.475 -0.84 0.957 -0.855 c 1.839 -0.055 3.353 -2.051 3.372 -4.447 c 0.004 -0.498 0.377 -0.921 0.871 -0.989 c 0.25 -0.046 0.404 -0.07 0.564 -0.07 h 11.922 c 0.16 0 0.312 0.023 0.471 0.055 c 0.471 0.09 0.961 0.525 0.965 1.004 c 0.02 2.396 1.533 4.393 3.372 4.447 c 0.482 0.015 0.886 0.376 0.957 0.855 c 0.078 0.525 0.125 1.062 0.125 1.616 v 28.972 c 0 0.553 -0.047 1.091 -0.125 1.616 c -0.071 0.478 -0.475 0.839 -0.957 0.854 c -1.839 0.055 -3.353 2.051 -3.372 4.447 c -0.004 0.502 -0.377 0.922 -0.871 0.988 C 51.096 68.406 50.943 68.43 50.783 68.43 z M 34.998 61.025 c 2.271 0.51 4.024 2.667 4.373 5.396 h 10.902 c 0.349 -2.729 2.102 -4.886 4.373 -5.396 c 0.012 -0.188 0.02 -0.38 0.02 -0.573 V 31.48 c 0 -0.192 -0.008 -0.385 -0.02 -0.572 c -2.271 -0.51 -4.024 -2.667 -4.373 -5.396 H 39.371 c -0.349 2.729 -2.102 4.886 -4.373 5.396 c -0.012 0.188 -0.02 0.38 -0.02 0.572 v 28.972 C 34.979 60.645 34.986 60.837 34.998 61.025 z" stroke-linecap="round"/>
</g>
		<g transform="matrix(11.9959 0 0 11.9959 -595.1859 -17.4923)" id="icon-0">
<path style="stroke: none; stroke-width: 1; stroke-dasharray: none; stroke-linecap: butt; stroke-dashoffset: 0; stroke-linejoin: miter; stroke-miterlimit: 4; is-custom-font: none; font-file-url: none; fill: rgb(255,210,48); fill-rule: nonzero; opacity: 1;" transform=" translate(-44.822, -45.966)" d="M 50.783 69.433 H 38.861 c -0.228 0 -0.443 -0.031 -0.666 -0.074 c -0.863 -0.165 -1.766 -0.953 -1.773 -1.98 c -0.016 -1.832 -1.113 -3.412 -2.4 -3.451 c -0.968 -0.031 -1.775 -0.753 -1.917 -1.713 c -0.087 -0.569 -0.138 -1.157 -0.138 -1.761 V 31.48 c 0 -0.604 0.051 -1.192 0.138 -1.765 c 0.142 -0.957 0.949 -1.679 1.917 -1.71 c 1.287 -0.04 2.385 -1.62 2.4 -3.451 c 0.008 -0.992 0.757 -1.843 1.742 -1.977 c 0.281 -0.055 0.485 -0.078 0.697 -0.078 h 11.922 c 0.227 0 0.443 0.031 0.666 0.074 c 0.863 0.165 1.766 0.953 1.773 1.98 c 0.016 1.832 1.113 3.412 2.4 3.451 c 0.968 0.031 1.775 0.753 1.916 1.713 c 0.088 0.569 0.139 1.157 0.139 1.761 v 28.972 c 0 0.604 -0.051 1.192 -0.139 1.765 c -0.141 0.957 -0.948 1.678 -1.916 1.709 c -1.287 0.04 -2.385 1.62 -2.4 3.451 c -0.008 0.992 -0.758 1.843 -1.741 1.977 C 51.199 69.41 50.994 69.433 50.783 69.433 z M 34.077 61.849 c 0.004 0.023 0.008 0.047 0.011 0.071 c 2.369 0.07 4.318 2.514 4.342 5.443 c 0.016 0.003 0.036 0.008 0.052 0.008 l -0.106 -0.824 c -0.295 -2.298 -1.741 -4.125 -3.596 -4.541 L 34.077 61.849 z M 40.207 65.417 h 9.23 c 0.568 -2.427 2.166 -4.364 4.225 -5.141 v -28.62 c -2.059 -0.776 -3.656 -2.713 -4.225 -5.141 h -9.23 c -0.568 2.428 -2.166 4.365 -4.225 5.141 v 28.62 C 38.041 61.053 39.639 62.99 40.207 65.417 z M 55.57 61.845 l -0.705 0.161 c -1.342 0.302 -2.471 1.337 -3.102 2.761 c 0.764 -1.655 2.184 -2.8 3.796 -2.847 C 55.563 61.896 55.567 61.873 55.57 61.845 z M 33.975 31.48 v 28.972 V 31.48 z M 37.881 27.167 c -0.765 1.655 -2.184 2.8 -3.796 2.847 c -0.004 0.023 -0.008 0.047 -0.013 0.075 l 0.707 -0.161 C 36.12 29.625 37.249 28.59 37.881 27.167 z M 51.164 24.562 l 0.105 0.824 c 0.294 2.298 1.74 4.125 3.596 4.542 l 0.702 0.157 c -0.004 -0.024 -0.008 -0.047 -0.012 -0.071 c -2.368 -0.07 -4.317 -2.514 -4.341 -5.443 C 51.199 24.566 51.18 24.562 51.164 24.562 z M 38.861 24.507 h 11.922 H 38.861 z" stroke-linecap="round"/>
</g>
		<g transform="matrix(11.9959 0 0 11.9959 -595.2157 -119.7392)" id="icon-0">
<path style="stroke: none; stroke-width: 1; stroke-dasharray: none; stroke-linecap: butt; stroke-dashoffset: 0; stroke-linejoin: miter; stroke-miterlimit: 4; is-custom-font: none; font-file-url: none; fill: rgb(255,210,48); fill-rule: nonzero; opacity: 1;" transform=" translate(-44.8195, -37.4425)" d="M 47.614 42.813 h -5.585 c -1.87 0 -3.396 -1.321 -3.396 -2.945 v -4.851 c 0 -1.624 1.525 -2.945 3.396 -2.945 h 5.585 c 1.866 0 3.392 1.322 3.392 2.945 v 4.851 C 51.006 41.492 49.48 42.813 47.614 42.813 z M 42.029 32.728 c -1.459 0 -2.639 1.027 -2.639 2.29 v 4.851 c 0 1.263 1.18 2.29 2.639 2.29 h 5.585 c 1.455 0 2.64 -1.027 2.64 -2.29 v -4.851 c 0 -1.263 -1.185 -2.29 -2.64 -2.29 H 42.029 z" stroke-linecap="round"/>
</g>
		<g transform="matrix(11.9959 0 0 11.9959 -628.7023 -119.7392)" id="icon-0">
<path style="stroke: none; stroke-width: 1; stroke-dasharray: none; stroke-linecap: butt; stroke-dashoffset: 0; stroke-linejoin: miter; stroke-miterlimit: 4; is-custom-font: none; font-file-url: none; fill: rgb(255,210,48); fill-rule: nonzero; opacity: 1;" transform=" translate(-42.028, -37.4425)" d="M 42.029 42.813 c -0.211 0 -0.379 -0.145 -0.379 -0.325 v -10.09 c 0 -0.18 0.168 -0.326 0.379 -0.326 c 0.205 0 0.377 0.146 0.377 0.326 v 10.09 C 42.406 42.668 42.234 42.813 42.029 42.813 z" stroke-linecap="round"/>
</g>
		<g transform="matrix(11.9959 0 0 11.9959 -616.0466 -119.7392)" id="icon-0">
<path style="stroke: none; stroke-width: 1; stroke-dasharray: none; stroke-linecap: butt; stroke-dashoffset: 0; stroke-linejoin: miter; stroke-miterlimit: 4; is-custom-font: none; font-file-url: none; fill: rgb(255,210,48); fill-rule: nonzero; opacity: 1;" transform=" translate(-43.083, -37.4425)" d="M 43.085 42.813 c -0.208 0 -0.38 -0.145 -0.38 -0.325 v -10.09 c 0 -0.18 0.172 -0.326 0.38 -0.326 s 0.376 0.146 0.376 0.326 v 10.09 C 43.461 42.668 43.293 42.813 43.085 42.813 z" stroke-linecap="round"/>
</g>
		<g transform="matrix(11.9959 0 0 11.9959 -561.6931 -119.7392)" id="icon-0">
<path style="stroke: none; stroke-width: 1; stroke-dasharray: none; stroke-linecap: butt; stroke-dashoffset: 0; stroke-linejoin: miter; stroke-miterlimit: 4; is-custom-font: none; font-file-url: none; fill: rgb(255,210,48); fill-rule: nonzero; opacity: 1;" transform=" translate(-47.614, -37.4425)" d="M 47.614 42.813 c -0.204 0 -0.376 -0.145 -0.376 -0.325 v -10.09 c 0 -0.18 0.172 -0.326 0.376 -0.326 c 0.212 0 0.376 0.146 0.376 0.326 v 10.09 C 47.99 42.668 47.826 42.813 47.614 42.813 z" stroke-linecap="round"/>
</g>
		<g transform="matrix(11.9959 0 0 11.9959 -547.106 -119.6912)" id="icon-0">
<path style="stroke: none; stroke-width: 1; stroke-dasharray: none; stroke-linecap: butt; stroke-dashoffset: 0; stroke-linejoin: miter; stroke-miterlimit: 4; is-custom-font: none; font-file-url: none; fill: rgb(255,210,48); fill-rule: nonzero; opacity: 1;" transform=" translate(-48.83, -37.4465)" d="M 48.83 42.598 c -0.208 0 -0.376 -0.145 -0.376 -0.33 v -9.643 c 0 -0.18 0.168 -0.33 0.376 -0.33 s 0.376 0.149 0.376 0.33 v 9.643 C 49.206 42.453 49.038 42.598 48.83 42.598 z" stroke-linecap="round"/>
</g>
		<g transform="matrix(11.9959 0 0 11.9959 -587.3943 -118.4016)" id="icon-0">
<path style="stroke: none; stroke-width: 1; stroke-dasharray: none; stroke-linecap: butt; stroke-dashoffset: 0; stroke-linejoin: miter; stroke-miterlimit: 4; is-custom-font: none; font-file-url: none; fill: rgb(255,210,48); fill-rule: nonzero; opacity: 1;" transform=" translate(-45.4715, -37.554)" d="M 45.473 42.813 c -0.212 0 -0.38 -0.145 -0.38 -0.325 v -9.863 c 0 -0.18 0.168 -0.33 0.38 -0.33 c 0.205 0 0.377 0.149 0.377 0.33 v 9.863 C 45.85 42.668 45.678 42.813 45.473 42.813 z" stroke-linecap="round"/>
</g>
		<g transform="matrix(11.9959 0 0 11.9959 -525.6814 119.7533)" id="icon-0">
<path style="stroke: none; stroke-width: 1; stroke-dasharray: none; stroke-linecap: butt; stroke-dashoffset: 0; stroke-linejoin: miter; stroke-miterlimit: 4; is-custom-font: none; font-file-url: none; fill: rgb(255,210,48); fill-rule: nonzero; opacity: 1;" transform=" translate(-50.616, -57.407)" d="M 50.618 59.068 c -0.917 0 -1.663 -0.745 -1.663 -1.659 c 0 -0.917 0.746 -1.663 1.663 -1.663 c 0.914 0 1.659 0.745 1.659 1.663 C 52.277 58.324 51.532 59.068 50.618 59.068 z M 50.618 56.751 c -0.364 0 -0.659 0.294 -0.659 0.659 c 0 0.361 0.295 0.655 0.659 0.655 c 0.36 0 0.655 -0.294 0.655 -0.655 C 51.273 57.045 50.979 56.751 50.618 56.751 z" stroke-linecap="round"/>
</g>
		<g transform="matrix(11.9959 0 0 11.9959 -573.845 119.7533)" id="icon-0">
<path style="stroke: none; stroke-width: 1; stroke-dasharray: none; stroke-linecap: butt; stroke-dashoffset: 0; stroke-linejoin: miter; stroke-miterlimit: 4; is-custom-font: none; font-file-url: none; fill: rgb(255,210,48); fill-rule: nonzero; opacity: 1;" transform=" translate(-46.601, -57.407)" d="M 46.603 59.068 c -0.917 0 -1.663 -0.745 -1.663 -1.659 c 0 -0.917 0.746 -1.663 1.663 -1.663 c 0.914 0 1.659 0.745 1.659 1.663 C 48.262 58.324 47.517 59.068 46.603 59.068 z M 46.603 56.751 c -0.364 0 -0.659 0.294 -0.659 0.659 c 0 0.361 0.295 0.655 0.659 0.655 c 0.36 0 0.655 -0.294 0.655 -0.655 C 47.258 57.045 46.963 56.751 46.603 56.751 z" stroke-linecap="round"/>
</g>
		<g transform="matrix(11.9959 0 0 11.9959 -525.6814 119.7533)" id="icon-0">
<path style="stroke: none; stroke-width: 1; stroke-dasharray: none; stroke-linecap: butt; stroke-dashoffset: 0; stroke-linejoin: miter; stroke-miterlimit: 4; is-custom-font: none; font-file-url: none; fill: rgb(255,210,48); fill-rule: nonzero; opacity: 1;" transform=" translate(-50.616, -57.407)" d="M 50.618 59.068 c -0.917 0 -1.663 -0.745 -1.663 -1.659 c 0 -0.917 0.746 -1.663 1.663 -1.663 c 0.914 0 1.659 0.745 1.659 1.663 C 52.277 58.324 51.532 59.068 50.618 59.068 z M 50.618 56.751 c -0.364 0 -0.659 0.294 -0.659 0.659 c 0 0.361 0.295 0.655 0.659 0.655 c 0.36 0 0.655 -0.294 0.655 -0.655 C 51.273 57.045 50.979 56.751 50.618 56.751 z" stroke-linecap="round"/>
</g>
		<g transform="matrix(11.9959 0 0 11.9959 -622.0206 119.7533)" id="icon-0">
<path style="stroke: none; stroke-width: 1; stroke-dasharray: none; stroke-linecap: butt; stroke-dashoffset: 0; stroke-linejoin: miter; stroke-miterlimit: 4; is-custom-font: none; font-file-url: none; fill: rgb(255,210,48); fill-rule: nonzero; opacity: 1;" transform=" translate(-42.585, -57.407)" d="M 42.587 59.068 c -0.918 0 -1.663 -0.745 -1.663 -1.659 c 0 -0.917 0.745 -1.663 1.663 -1.663 c 0.913 0 1.659 0.745 1.659 1.663 C 44.246 58.324 43.5 59.068 42.587 59.068 z M 42.587 56.751 c -0.364 0 -0.659 0.294 -0.659 0.659 c 0 0.361 0.295 0.655 0.659 0.655 c 0.36 0 0.655 -0.294 0.655 -0.655 C 43.242 57.045 42.947 56.751 42.587 56.751 z" stroke-linecap="round"/>
</g>
		<g transform="matrix(11.9959 0 0 11.9959 -573.845 119.7533)" id="icon-0">
<path style="stroke: none; stroke-width: 1; stroke-dasharray: none; stroke-linecap: butt; stroke-dashoffset: 0; stroke-linejoin: miter; stroke-miterlimit: 4; is-custom-font: none; font-file-url: none; fill: rgb(255,210,48); fill-rule: nonzero; opacity: 1;" transform=" translate(-46.601, -57.407)" d="M 46.603 59.068 c -0.917 0 -1.663 -0.745 -1.663 -1.659 c 0 -0.917 0.746 -1.663 1.663 -1.663 c 0.914 0 1.659 0.745 1.659 1.663 C 48.262 58.324 47.517 59.068 46.603 59.068 z M 46.603 56.751 c -0.364 0 -0.659 0.294 -0.659 0.659 c 0 0.361 0.295 0.655 0.659 0.655 c 0.36 0 0.655 -0.294 0.655 -0.655 C 47.258 57.045 46.963 56.751 46.603 56.751 z" stroke-linecap="round"/>
</g>
		<g transform="matrix(11.9959 0 0 11.9959 -670.1962 119.7533)" id="icon-0">
<path style="stroke: none; stroke-width: 1; stroke-dasharray: none; stroke-linecap: butt; stroke-dashoffset: 0; stroke-linejoin: miter; stroke-miterlimit: 4; is-custom-font: none; font-file-url: none; fill: rgb(255,210,48); fill-rule: nonzero; opacity: 1;" transform=" translate(-38.569, -57.407)" d="M 38.571 59.068 c -0.918 0 -1.663 -0.745 -1.663 -1.659 c 0 -0.917 0.745 -1.663 1.663 -1.663 c 0.913 0 1.659 0.745 1.659 1.663 C 40.23 58.324 39.484 59.068 38.571 59.068 z M 38.571 56.751 c -0.364 0 -0.659 0.294 -0.659 0.659 c 0 0.361 0.295 0.655 0.659 0.655 c 0.36 0 0.655 -0.294 0.655 -0.655 C 39.227 57.045 38.932 56.751 38.571 56.751 z" stroke-linecap="round"/>
</g>
		<g transform="matrix(11.9959 0 0 11.9959 -436.7346 8.9695)" id="icon-0">
<path style="stroke: none; stroke-width: 1; stroke-dasharray: none; stroke-linecap: butt; stroke-dashoffset: 0; stroke-linejoin: miter; stroke-miterlimit: 4; is-custom-font: none; font-file-url: none; fill: rgb(255,210,48); fill-rule: nonzero; opacity: 1;" transform=" translate(-58.0308, -48.1719)" d="M 70.148 37.245 c 0.141 -0.533 0.234 -1.066 0.297 -1.592 c 0.055 -0.482 -0.242 -0.933 -0.705 -1.075 c -1.766 -0.529 -2.706 -2.847 -2.106 -5.168 c 0.122 -0.463 -0.231 -1.004 -0.663 -1.216 c -0.141 -0.067 -0.289 -0.133 -0.45 -0.177 L 55.01 24.931 c -0.188 -0.051 -0.352 -0.063 -0.564 -0.079 c -0.447 -0.039 -0.779 0.196 -0.969 0.545 c 0.153 0.945 0.491 1.789 1.027 2.423 c 0.157 -0.274 0.35 -0.518 0.475 -0.819 l 10.529 2.823 c -0.368 2.726 0.766 5.263 2.828 6.341 c -0.035 0.185 -0.078 0.373 -0.129 0.561 l -7.502 27.984 c -0.048 0.188 -0.102 0.369 -0.165 0.549 c -2.329 -0.094 -4.589 1.569 -5.616 4.079 l -3.349 -0.498 L 45.61 68.99 l 9.274 2.42 c 0.188 0.051 0.354 0.062 0.479 0.07 l 0.224 0.016 l -0.138 -0.008 c 0.047 0.004 0.094 0.008 0.138 0.008 c 0.443 0 0.843 -0.298 0.969 -0.737 c 0.632 -2.278 2.62 -3.839 4.407 -3.423 c 0.463 0.125 0.957 -0.133 1.149 -0.577 c 0.208 -0.486 0.392 -0.996 0.538 -1.529 L 70.148 37.245 z" stroke-linecap="round"/>
</g>
		<g transform="matrix(11.9959 0 0 11.9959 -473.5587 8.9707)" id="icon-0">
<path style="stroke: none; stroke-width: 1; stroke-dasharray: none; stroke-linecap: butt; stroke-dashoffset: 0; stroke-linejoin: miter; stroke-miterlimit: 4; is-custom-font: none; font-file-url: none; fill: rgb(255,210,48); fill-rule: nonzero; opacity: 1;" transform=" translate(-54.9611, -48.172)" d="M 55.587 72.5 l -0.22 -0.012 c -0.274 -0.02 -0.494 -0.043 -0.745 -0.11 l -16.153 -4.215 l 13.083 -0.326 l 2.78 0.4 c 1.164 -2.219 3.239 -3.729 5.447 -3.957 l 7.412 -27.643 c -1.789 -1.278 -2.828 -3.565 -2.75 -6.059 l -8.973 -2.408 l -0.803 1.396 l -0.926 -1.099 c -0.636 -0.746 -1.067 -1.753 -1.256 -2.909 l -0.055 -0.337 l 0.165 -0.302 c 0.36 -0.671 1.02 -1.075 1.753 -1.075 c 0.459 0.028 0.675 0.052 0.926 0.118 l 11.506 3.086 c 0.223 0.059 0.428 0.146 0.619 0.239 c 0.805 0.392 1.467 1.384 1.208 2.377 c -0.458 1.772 0.192 3.584 1.424 3.953 c 0.929 0.283 1.521 1.188 1.411 2.149 c -0.066 0.577 -0.168 1.157 -0.325 1.737 l -7.498 27.984 c -0.157 0.584 -0.356 1.137 -0.584 1.667 c -0.322 0.741 -1.039 1.215 -1.831 1.215 l 0 0 l -0.502 -0.067 c -0.083 -0.019 -0.204 -0.031 -0.326 -0.031 c -1.173 0 -2.424 1.208 -2.852 2.753 C 57.273 71.896 56.477 72.5 55.587 72.5 z M 55.587 71.496 v -1.003 c -0.004 0 -0.004 0 -0.004 0 c 0.056 -0.193 0.114 -0.381 0.185 -0.565 l -0.212 0.521 l -0.882 -0.133 l 0.467 0.122 c 0.098 0.027 0.184 0.035 0.285 0.039 l 0.035 0.679 l 0.048 -0.671 l 0.011 0.168 l 0.016 -0.165 L 55.587 71.496 z M 57.736 67.222 c -0.73 0.553 -1.342 1.317 -1.765 2.228 C 56.398 68.543 57.014 67.778 57.736 67.222 z M 69.246 36.716 c -0.023 0.09 -0.047 0.184 -0.071 0.274 l -7.502 27.98 c -0.035 0.149 -0.078 0.302 -0.129 0.455 c 0.051 -0.153 0.094 -0.306 0.138 -0.458 l 7.498 -27.98 C 69.203 36.896 69.223 36.806 69.246 36.716 z M 66.614 29.135 l -0.11 0.824 c -0.312 2.302 0.612 4.435 2.299 5.317 l 0.635 0.333 c 0.004 -0.023 0.008 -0.051 0.012 -0.074 c -2.27 -0.679 -3.521 -3.542 -2.788 -6.376 C 66.646 29.151 66.63 29.143 66.614 29.135 z M 54.729 25.896 l 11.557 3.098 c -0.008 -0.004 -0.016 -0.004 -0.023 -0.008 L 54.752 25.9 C 54.744 25.9 54.736 25.896 54.729 25.896 z" stroke-linecap="round"/>
</g>
		<g transform="matrix(11.9959 0 0 11.9959 -437.9912 -123.074)" id="icon-0">
<polygon style="stroke: none; stroke-width: 1; stroke-dasharray: none; stroke-linecap: butt; stroke-dashoffset: 0; stroke-linejoin: miter; stroke-miterlimit: 4; is-custom-font: none; font-file-url: none; fill: none; fill-rule: nonzero; opacity: 1;" points="-0.951,-3.8065 -0.951,3.8065 0.951,-3.2955 "/>
</g>
		<g transform="matrix(11.9959 0 0 11.9959 -405.0805 -98.7387)" id="icon-0">
<path style="stroke: none; stroke-width: 1; stroke-dasharray: none; stroke-linecap: butt; stroke-dashoffset: 0; stroke-linejoin: miter; stroke-miterlimit: 4; is-custom-font: none; font-file-url: none; fill: none; fill-rule: nonzero; opacity: 1;" transform=" translate(-60.6695, -39.1931)" d="M 59.254 43.665 c 0.156 0.02 0.313 0.043 0.471 0.04 l 2.36 -8.824 c -0.126 -0.083 -0.274 -0.137 -0.423 -0.2 L 59.254 43.665 z" stroke-linecap="round"/>
</g>
		<g transform="matrix(11.9959 0 0 11.9959 -389.8334 -95.2015)" id="icon-0">
<path style="stroke: none; stroke-width: 1; stroke-dasharray: none; stroke-linecap: butt; stroke-dashoffset: 0; stroke-linejoin: miter; stroke-miterlimit: 4; is-custom-font: none; font-file-url: none; fill: none; fill-rule: nonzero; opacity: 1;" transform=" translate(-61.9405, -39.488)" d="M 62.014 42.1 l 1.256 -4.683 c 0.188 -0.709 -0.059 -1.424 -0.549 -1.988 l -2.173 8.118 C 61.254 43.3 61.826 42.81 62.014 42.1 z" stroke-linecap="round"/>
</g>
		<g transform="matrix(11.9959 0 0 11.9959 -424.5318 -103.3587)" id="icon-0">
<polygon style="stroke: none; stroke-width: 1; stroke-dasharray: none; stroke-linecap: butt; stroke-dashoffset: 0; stroke-linejoin: miter; stroke-miterlimit: 4; is-custom-font: none; font-file-url: none; fill: none; fill-rule: nonzero; opacity: 1;" points="-1.903,4.461 -0.544,4.743 1.903,-4.387 0.558,-4.743 "/>
</g>
		<g transform="matrix(11.9959 0 0 11.9959 -387.3745 -156.4166)" id="icon-0">
<path style="stroke: none; stroke-width: 1; stroke-dasharray: none; stroke-linecap: butt; stroke-dashoffset: 0; stroke-linejoin: miter; stroke-miterlimit: 4; is-custom-font: none; font-file-url: none; fill: rgb(255,210,48); fill-rule: nonzero; opacity: 1;" transform=" translate(-62.1455, -34.385)" d="M 61.764 34.3 l -0.102 0.381 c 0.148 0.062 0.297 0.117 0.423 0.2 l 0.067 -0.239 c 0.047 -0.177 0.246 -0.274 0.45 -0.223 c 0.087 0.023 0.153 0.082 0.204 0.145 c -0.381 -0.294 -0.816 -0.538 -1.321 -0.675 C 61.686 33.943 61.811 34.127 61.764 34.3 z" stroke-linecap="round"/>
</g>
		<g transform="matrix(11.9959 0 0 11.9959 -420.0573 -40.7892)" id="icon-0">
<path style="stroke: none; stroke-width: 1; stroke-dasharray: none; stroke-linecap: butt; stroke-dashoffset: 0; stroke-linejoin: miter; stroke-miterlimit: 4; is-custom-font: none; font-file-url: none; fill: rgb(255,210,48); fill-rule: nonzero; opacity: 1;" transform=" translate(-59.421, -44.0239)" d="M 59.653 43.955 l 0.071 -0.251 c -0.157 0.003 -0.314 -0.02 -0.471 -0.04 l -0.103 0.381 c -0.046 0.176 -0.243 0.274 -0.447 0.22 c 0.491 0.129 0.974 0.145 1.436 0.086 c -0.062 0.019 -0.133 0.039 -0.204 0.019 C 59.732 44.316 59.606 44.131 59.653 43.955 z" stroke-linecap="round"/>
</g>
		<g transform="matrix(11.9959 0 0 11.9959 -420.6158 -107.2998)" id="icon-0">
<path style="stroke: none; stroke-width: 1; stroke-dasharray: none; stroke-linecap: butt; stroke-dashoffset: 0; stroke-linejoin: miter; stroke-miterlimit: 4; is-custom-font: none; font-file-url: none; fill: rgb(255,210,48); fill-rule: nonzero; opacity: 1;" transform=" translate(-59.3744, -38.4795)" d="M 61.764 34.3 c 0.047 -0.172 -0.078 -0.356 -0.278 -0.412 l -4.511 -1.208 v 0.678 l 1.902 0.51 l -1.902 7.102 v 2.643 v 0.29 l 1.729 0.361 c 0.204 0.054 0.401 -0.043 0.447 -0.22 l 0.103 -0.381 l 2.408 -8.984 L 61.764 34.3 z M 58.504 43.551 l -1.359 -0.282 l 2.462 -9.204 l 1.345 0.356 L 58.504 43.551 z" stroke-linecap="round"/>
</g>
		<g transform="matrix(11.9959 0 0 11.9959 -390.7387 -96.3605)" id="icon-0">
<path style="stroke: none; stroke-width: 1; stroke-dasharray: none; stroke-linecap: butt; stroke-dashoffset: 0; stroke-linejoin: miter; stroke-miterlimit: 4; is-custom-font: none; font-file-url: none; fill: rgb(255,210,48); fill-rule: nonzero; opacity: 1;" transform=" translate(-61.865, -39.3914)" d="M 62.834 34.59 c -0.004 -0.012 -0.02 -0.016 -0.027 -0.027 c -0.051 -0.063 -0.117 -0.122 -0.204 -0.145 c -0.204 -0.051 -0.403 0.046 -0.45 0.223 l -0.067 0.239 l -2.36 8.824 l -0.071 0.251 c -0.047 0.176 0.079 0.361 0.282 0.415 c 0.071 0.02 0.142 0 0.204 -0.019 c 0.035 -0.008 0.063 -0.008 0.095 -0.024 c 1.199 -0.18 2.211 -0.917 2.51 -2.031 l 1.255 -4.687 C 64.297 36.496 63.787 35.347 62.834 34.59 z M 62.014 42.1 c -0.188 0.71 -0.76 1.2 -1.466 1.447 l 2.173 -8.118 c 0.49 0.564 0.736 1.279 0.549 1.988 L 62.014 42.1 z" stroke-linecap="round"/>
</g>
		<g transform="matrix(3.7848 0 0 3.7848 -0.9111 0.903)" id="tight-bounds">
<rect style="stroke: none; stroke-width: 1; stroke-dasharray: none; stroke-linecap: butt; stroke-dashoffset: 0; stroke-linejoin: miter; stroke-miterlimit: 4; is-custom-font: none; font-file-url: none; fill: none; fill-rule: nonzero; opacity: 1;" x="-197.76" y="-79.2388" rx="0" ry="0" width="395.52" height="158.4776"/>
</g>
</g>
</g>
</svg>