<svg xmlns="http://www.w3.org/2000/svg" version="1.1" xmlns:xlink="http://www.w3.org/1999/xlink" xmlns:svgjs="http://svgjs.dev/svgjs" width="1500" height="598" viewBox="0 0 1500 598"><g transform="matrix(1,0,0,1,-0.9090909090909918,0.9038752101990326)"><svg viewBox="0 0 396 158" data-background-color="#ffffff" preserveAspectRatio="xMidYMid meet" height="598" width="1500" xmlns="http://www.w3.org/2000/svg" xmlns:xlink="http://www.w3.org/1999/xlink"><g id="tight-bounds" transform="matrix(1,0,0,1,0.2400000000000091,-0.23881652710944934)"><svg viewBox="0 0 395.52 158.4776330542189" height="158.4776330542189" width="395.52"><g><svg viewBox="0 0 610.8908078571053 244.77277832669316" height="158.4776330542189" width="395.52"><g transform="matrix(1,0,0,1,215.37080785710538,75.63834135458166)"><svg viewBox="0 0 395.52 93.49609561752986" height="93.49609561752986" width="395.52"><g id="textblocktransform"><svg viewBox="0 0 395.52 93.49609561752986" height="93.49609561752986" width="395.52" id="textblock"><g><svg viewBox="0 0 395.52 93.49609561752986" height="93.49609561752986" width="395.52"><g transform="matrix(1,0,0,1,0,0)"><svg width="395.52" viewBox="1 -34.9 150.59 35.6" height="93.49609561752986" data-palette-color="#ffcd19"><path d="M23.35 0L7.9 0 7.9-1.05 9.9-1.45Q12-1.9 12-3.9L12-3.9 12-17.55Q12-21.05 12-24.55 12-28.05 11.95-31.55L11.95-31.55 8-31.55Q6.4-31.55 5.65-30.7 4.9-29.85 4.15-28.3L4.15-28.3 2.4-24.6 1-24.6 1.25-33.05 29.95-33.05 30.2-24.6 28.8-24.6 27.05-28.3Q26.3-29.85 25.55-30.7 24.8-31.55 23.2-31.55L23.2-31.55 19.2-31.55 19.2-3.9Q19.2-1.85 21.3-1.45L21.3-1.45 23.35-1.05 23.35 0ZM44.75 0L32.25 0 32.25-0.95 33-1.2Q34-1.45 34.37-2.05 34.75-2.65 34.75-3.65L34.75-3.65 34.75-18.3Q34.7-19.4 34.35-19.98 34-20.55 33-20.75L33-20.75 32.25-20.95 32.25-21.85 40.4-24.75 41-24.2 41.45-19.8 41.45-19.45Q42.2-20.85 43.35-22.05 44.5-23.25 45.85-24 47.2-24.75 48.55-24.75L48.55-24.75Q50.45-24.75 51.4-23.75 52.35-22.75 52.35-21.2L52.35-21.2Q52.35-19.5 51.4-18.63 50.45-17.75 49.1-17.75L49.1-17.75Q47.1-17.75 45.65-19.55L45.65-19.55 45.55-19.65Q45.05-20.25 44.42-20.33 43.8-20.4 43.2-19.7L43.2-19.7Q42.7-19.2 42.27-18.53 41.85-17.85 41.5-16.95L41.5-16.95 41.5-3.85Q41.5-2.9 41.9-2.27 42.3-1.65 43.25-1.4L43.25-1.4 44.75-0.95 44.75 0ZM61.25 0.7L61.25 0.7Q58.4 0.7 56.42-0.93 54.45-2.55 54.45-5.6L54.45-5.6Q54.45-8 56.77-10.03 59.1-12.05 64.1-13L64.1-13Q64.95-13.2 66.07-13.38 67.2-13.55 68.3-13.75L68.3-13.75 68.3-17.3Q68.3-20.7 67.45-22 66.6-23.3 64.75-23.3L64.75-23.3 64.6-23.3Q63.45-23.3 62.77-22.58 62.1-21.85 61.9-20.2L61.9-20.2 61.75-19.55Q61.6-17.55 60.7-16.63 59.8-15.7 58.45-15.7L58.45-15.7Q57.2-15.7 56.37-16.48 55.55-17.25 55.55-18.5L55.55-18.5Q55.55-20.55 56.95-21.95 58.35-23.35 60.67-24.05 63-24.75 65.7-24.75L65.7-24.75Q70.15-24.75 72.5-22.6 74.85-20.45 74.85-15.6L74.85-15.6 74.85-4.45Q74.85-2.3 76.9-2.3L76.9-2.3 78.05-2.3 78.55-1.75Q77.65-0.6 76.55 0.03 75.45 0.65 73.55 0.65L73.55 0.65Q71.4 0.65 70.12-0.38 68.85-1.4 68.45-3.1L68.45-3.1Q66.85-1.4 65.3-0.35 63.75 0.7 61.25 0.7ZM64.15-2.5L64.15-2.5Q65.15-2.5 66.05-2.95 66.95-3.4 68.3-4.45L68.3-4.45 68.3-12.45Q67-12.25 65.65-11.95L65.65-11.95Q63.5-11.45 62.17-10.1 60.85-8.75 60.85-6.45L60.85-6.45Q60.85-4.45 61.77-3.48 62.7-2.5 64.15-2.5ZM85.49-27.5L85.49-27.5Q83.84-27.5 82.69-28.55 81.54-29.6 81.54-31.2L81.54-31.2Q81.54-32.85 82.69-33.88 83.84-34.9 85.49-34.9L85.49-34.9Q87.14-34.9 88.29-33.88 89.44-32.85 89.44-31.2L89.44-31.2Q89.44-29.6 88.29-28.55 87.14-27.5 85.49-27.5ZM91.19 0L79.74 0 79.74-0.95 80.49-1.15Q81.49-1.45 81.84-2.05 82.19-2.65 82.24-3.65L82.24-3.65 82.24-12.85Q82.24-14.4 82.24-15.73 82.24-17.05 82.19-18.45L82.19-18.45Q82.19-19.45 81.82-20.03 81.44-20.6 80.44-20.8L80.44-20.8 79.74-20.95 79.74-21.85 88.49-24.75 89.09-24.2 88.94-17.1 88.94-3.6Q88.94-2.6 89.32-2 89.69-1.4 90.64-1.1L90.64-1.1 91.19-0.95 91.19 0ZM104.84 0L93.39 0 93.39-0.95 94.19-1.15Q95.84-1.65 95.84-3.6L95.84-3.6 95.84-18.35Q95.79-19.4 95.49-19.98 95.19-20.55 94.19-20.75L94.19-20.75 93.39-20.95 93.39-21.85 101.49-24.75 102.09-24.2 102.44-21.1Q104.24-22.7 106.47-23.73 108.69-24.75 110.84-24.75L110.84-24.75Q114.14-24.75 115.92-22.95 117.69-21.15 117.69-17.45L117.69-17.45 117.69-3.55Q117.69-1.6 119.49-1.1L119.49-1.1 120.04-0.95 120.04 0 108.54 0 108.54-0.95 109.29-1.15Q110.94-1.7 110.94-3.6L110.94-3.6 110.94-18.45Q110.94-20.2 110.19-21 109.44-21.8 107.69-21.8L107.69-21.8Q105.24-21.8 102.59-19.65L102.59-19.65 102.59-3.55Q102.59-1.6 104.34-1.1L104.34-1.1 104.84-0.95 104.84 0ZM128.99 0L121.74 0 121.74-1.05 122.64-1.3Q123.74-1.6 124.36-2.18 124.99-2.75 125.64-3.75L125.64-3.75 133.14-15.3 124.84-29.35Q124.24-30.35 123.79-30.85 123.34-31.35 122.34-31.7L122.34-31.7 121.49-32 121.49-33.05 134.64-33.05 134.64-32 133.64-31.75Q132.59-31.45 132.49-30.7 132.39-29.95 132.99-28.9L132.99-28.9 137.94-20.6 143.14-28.85Q143.79-29.9 143.86-30.73 143.94-31.55 142.79-31.8L142.79-31.8 141.94-32 141.94-33.05 149.34-33.05 149.34-32 148.19-31.7Q147.14-31.45 146.56-30.88 145.99-30.3 145.39-29.3L145.39-29.3 138.79-19.1 147.84-3.75Q148.39-2.75 149.01-2.23 149.64-1.7 150.59-1.35L150.59-1.35 151.59-1.05 151.59 0 137.89 0 137.89-1.05 138.89-1.25Q139.99-1.5 140.16-2.3 140.34-3.1 139.69-4.2L139.69-4.2 133.99-13.75 127.89-4.15Q127.24-3.05 127.31-2.25 127.39-1.45 128.39-1.2L128.39-1.2 128.99-1.05 128.99 0Z" opacity="1" transform="matrix(1,0,0,1,0,0)" fill="#ffcd19" class="wordmark-text-0" data-fill-palette-color="primary" id="text-0"></path></svg></g></svg></g></svg></g></svg></g><g><svg viewBox="0 0 193.2986235881014 244.77277832669316" height="244.77277832669316" width="193.2986235881014"><g><svg xmlns="http://www.w3.org/2000/svg" xmlns:xlink="http://www.w3.org/1999/xlink" version="1.1" x="0" y="0" viewBox="31.966999999999995 22.499 39.48610848028541 50.001000000000005" enable-background="new 0 0 100 100" xml:space="preserve" height="244.77277832669316" width="193.2986235881014" class="icon-icon-0" data-fill-palette-color="accent" id="icon-0"><g fill="#ffd230" data-fill-palette-color="accent"><g fill="#ffd230" data-fill-palette-color="accent"><g fill="#ffd230" data-fill-palette-color="accent"><g fill="#ffd230" data-fill-palette-color="accent"><g fill="#ffd230" data-fill-palette-color="accent"><path fill="#ffd230" d="M57.865 59.288c-0.918 0-1.662-0.745-1.662-1.659 0-0.917 0.744-1.663 1.662-1.663 0.914 0 1.659 0.745 1.659 1.663C59.524 58.543 58.779 59.288 57.865 59.288zM57.865 56.971c-0.365 0-0.658 0.294-0.658 0.659 0 0.361 0.293 0.655 0.658 0.655 0.361 0 0.654-0.294 0.654-0.655C58.52 57.265 58.227 56.971 57.865 56.971z" data-fill-palette-color="accent"></path></g></g></g></g><g fill="#ffd230" data-fill-palette-color="accent"><g fill="#ffd230" data-fill-palette-color="accent"><g fill="#ffd230" data-fill-palette-color="accent"><path fill="#ffd230" d="M50.783 68.43H38.861c-0.16 0-0.314-0.023-0.471-0.055-0.471-0.09-0.961-0.526-0.965-1.004-0.02-2.396-1.533-4.392-3.372-4.447-0.482-0.016-0.886-0.376-0.957-0.854-0.079-0.525-0.126-1.063-0.126-1.616V31.48c0-0.553 0.047-1.09 0.126-1.616 0.071-0.479 0.475-0.84 0.957-0.855 1.839-0.055 3.353-2.051 3.372-4.447 0.004-0.498 0.377-0.921 0.871-0.989 0.25-0.046 0.404-0.07 0.564-0.07h11.922c0.16 0 0.312 0.023 0.471 0.055 0.471 0.09 0.961 0.525 0.965 1.004 0.02 2.396 1.533 4.393 3.372 4.447 0.482 0.015 0.886 0.376 0.957 0.855 0.078 0.525 0.125 1.062 0.125 1.616v28.972c0 0.553-0.047 1.091-0.125 1.616-0.071 0.478-0.475 0.839-0.957 0.854-1.839 0.055-3.353 2.051-3.372 4.447-0.004 0.502-0.377 0.922-0.871 0.988C51.096 68.406 50.943 68.43 50.783 68.43zM34.998 61.025c2.271 0.51 4.024 2.667 4.373 5.396h10.902c0.349-2.729 2.102-4.886 4.373-5.396 0.012-0.188 0.02-0.38 0.02-0.573V31.48c0-0.192-0.008-0.385-0.02-0.572-2.271-0.51-4.024-2.667-4.373-5.396H39.371c-0.349 2.729-2.102 4.886-4.373 5.396-0.012 0.188-0.02 0.38-0.02 0.572v28.972C34.979 60.645 34.986 60.837 34.998 61.025z" data-fill-palette-color="accent"></path><path fill="#ffd230" d="M50.783 69.433H38.861c-0.228 0-0.443-0.031-0.666-0.074-0.863-0.165-1.766-0.953-1.773-1.98-0.016-1.832-1.113-3.412-2.4-3.451-0.968-0.031-1.775-0.753-1.917-1.713-0.087-0.569-0.138-1.157-0.138-1.761V31.48c0-0.604 0.051-1.192 0.138-1.765 0.142-0.957 0.949-1.679 1.917-1.71 1.287-0.04 2.385-1.62 2.4-3.451 0.008-0.992 0.757-1.843 1.742-1.977 0.281-0.055 0.485-0.078 0.697-0.078h11.922c0.227 0 0.443 0.031 0.666 0.074 0.863 0.165 1.766 0.953 1.773 1.98 0.016 1.832 1.113 3.412 2.4 3.451 0.968 0.031 1.775 0.753 1.916 1.713 0.088 0.569 0.139 1.157 0.139 1.761v28.972c0 0.604-0.051 1.192-0.139 1.765-0.141 0.957-0.948 1.678-1.916 1.709-1.287 0.04-2.385 1.62-2.4 3.451-0.008 0.992-0.758 1.843-1.741 1.977C51.199 69.41 50.994 69.433 50.783 69.433zM34.077 61.849c0.004 0.023 0.008 0.047 0.011 0.071 2.369 0.07 4.318 2.514 4.342 5.443 0.016 0.003 0.036 0.008 0.052 0.008l-0.106-0.824c-0.295-2.298-1.741-4.125-3.596-4.541L34.077 61.849zM40.207 65.417h9.23c0.568-2.427 2.166-4.364 4.225-5.141v-28.62c-2.059-0.776-3.656-2.713-4.225-5.141h-9.23c-0.568 2.428-2.166 4.365-4.225 5.141v28.62C38.041 61.053 39.639 62.99 40.207 65.417zM55.57 61.845l-0.705 0.161c-1.342 0.302-2.471 1.337-3.102 2.761 0.764-1.655 2.184-2.8 3.796-2.847C55.563 61.896 55.567 61.873 55.57 61.845zM33.975 31.48v28.972V31.48zM37.881 27.167c-0.765 1.655-2.184 2.8-3.796 2.847-0.004 0.023-0.008 0.047-0.013 0.075l0.707-0.161C36.12 29.625 37.249 28.59 37.881 27.167zM51.164 24.562l0.105 0.824c0.294 2.298 1.74 4.125 3.596 4.542l0.702 0.157c-0.004-0.024-0.008-0.047-0.012-0.071-2.368-0.07-4.317-2.514-4.341-5.443C51.199 24.566 51.18 24.562 51.164 24.562zM38.861 24.507h11.922H38.861z" data-fill-palette-color="accent"></path></g></g></g><g fill="#ffd230" data-fill-palette-color="accent"><g fill="#ffd230" data-fill-palette-color="accent"><g fill="#ffd230" data-fill-palette-color="accent"><path fill="#ffd230" d="M47.614 42.813h-5.585c-1.87 0-3.396-1.321-3.396-2.945v-4.851c0-1.624 1.525-2.945 3.396-2.945h5.585c1.866 0 3.392 1.322 3.392 2.945v4.851C51.006 41.492 49.48 42.813 47.614 42.813zM42.029 32.728c-1.459 0-2.639 1.027-2.639 2.29v4.851c0 1.263 1.18 2.29 2.639 2.29h5.585c1.455 0 2.64-1.027 2.64-2.29v-4.851c0-1.263-1.185-2.29-2.64-2.29H42.029z" data-fill-palette-color="accent"></path></g></g><g fill="#ffd230" data-fill-palette-color="accent"><g fill="#ffd230" data-fill-palette-color="accent"><path fill="#ffd230" d="M42.029 42.813c-0.211 0-0.379-0.145-0.379-0.325v-10.09c0-0.18 0.168-0.326 0.379-0.326 0.205 0 0.377 0.146 0.377 0.326v10.09C42.406 42.668 42.234 42.813 42.029 42.813z" data-fill-palette-color="accent"></path></g></g><g fill="#ffd230" data-fill-palette-color="accent"><g fill="#ffd230" data-fill-palette-color="accent"><path fill="#ffd230" d="M43.085 42.813c-0.208 0-0.38-0.145-0.38-0.325v-10.09c0-0.18 0.172-0.326 0.38-0.326s0.376 0.146 0.376 0.326v10.09C43.461 42.668 43.293 42.813 43.085 42.813z" data-fill-palette-color="accent"></path></g></g><g fill="#ffd230" data-fill-palette-color="accent"><g fill="#ffd230" data-fill-palette-color="accent"><path fill="#ffd230" d="M47.614 42.813c-0.204 0-0.376-0.145-0.376-0.325v-10.09c0-0.18 0.172-0.326 0.376-0.326 0.212 0 0.376 0.146 0.376 0.326v10.09C47.99 42.668 47.826 42.813 47.614 42.813z" data-fill-palette-color="accent"></path></g></g><g fill="#ffd230" data-fill-palette-color="accent"><g fill="#ffd230" data-fill-palette-color="accent"><path fill="#ffd230" d="M48.83 42.598c-0.208 0-0.376-0.145-0.376-0.33v-9.643c0-0.18 0.168-0.33 0.376-0.33s0.376 0.149 0.376 0.33v9.643C49.206 42.453 49.038 42.598 48.83 42.598z" data-fill-palette-color="accent"></path></g></g><g fill="#ffd230" data-fill-palette-color="accent"><g fill="#ffd230" data-fill-palette-color="accent"><path fill="#ffd230" d="M45.473 42.813c-0.212 0-0.38-0.145-0.38-0.325v-9.863c0-0.18 0.168-0.33 0.38-0.33 0.205 0 0.377 0.149 0.377 0.33v9.863C45.85 42.668 45.678 42.813 45.473 42.813z" data-fill-palette-color="accent"></path></g></g></g><g fill="#ffd230" data-fill-palette-color="accent"><g fill="#ffd230" data-fill-palette-color="accent"><g fill="#ffd230" data-fill-palette-color="accent"><g fill="#ffd230" data-fill-palette-color="accent"><path fill="#ffd230" d="M50.618 59.068c-0.917 0-1.663-0.745-1.663-1.659 0-0.917 0.746-1.663 1.663-1.663 0.914 0 1.659 0.745 1.659 1.663C52.277 58.324 51.532 59.068 50.618 59.068zM50.618 56.751c-0.364 0-0.659 0.294-0.659 0.659 0 0.361 0.295 0.655 0.659 0.655 0.36 0 0.655-0.294 0.655-0.655C51.273 57.045 50.979 56.751 50.618 56.751z" data-fill-palette-color="accent"></path></g></g></g><g fill="#ffd230" data-fill-palette-color="accent"><g fill="#ffd230" data-fill-palette-color="accent"><g fill="#ffd230" data-fill-palette-color="accent"><path fill="#ffd230" d="M46.603 59.068c-0.917 0-1.663-0.745-1.663-1.659 0-0.917 0.746-1.663 1.663-1.663 0.914 0 1.659 0.745 1.659 1.663C48.262 58.324 47.517 59.068 46.603 59.068zM46.603 56.751c-0.364 0-0.659 0.294-0.659 0.659 0 0.361 0.295 0.655 0.659 0.655 0.36 0 0.655-0.294 0.655-0.655C47.258 57.045 46.963 56.751 46.603 56.751z" data-fill-palette-color="accent"></path></g></g></g><g fill="#ffd230" data-fill-palette-color="accent"><g fill="#ffd230" data-fill-palette-color="accent"><g fill="#ffd230" data-fill-palette-color="accent"><path fill="#ffd230" d="M50.618 59.068c-0.917 0-1.663-0.745-1.663-1.659 0-0.917 0.746-1.663 1.663-1.663 0.914 0 1.659 0.745 1.659 1.663C52.277 58.324 51.532 59.068 50.618 59.068zM50.618 56.751c-0.364 0-0.659 0.294-0.659 0.659 0 0.361 0.295 0.655 0.659 0.655 0.36 0 0.655-0.294 0.655-0.655C51.273 57.045 50.979 56.751 50.618 56.751z" data-fill-palette-color="accent"></path></g></g><g fill="#ffd230" data-fill-palette-color="accent"><g fill="#ffd230" data-fill-palette-color="accent"><path fill="#ffd230" d="M42.587 59.068c-0.918 0-1.663-0.745-1.663-1.659 0-0.917 0.745-1.663 1.663-1.663 0.913 0 1.659 0.745 1.659 1.663C44.246 58.324 43.5 59.068 42.587 59.068zM42.587 56.751c-0.364 0-0.659 0.294-0.659 0.659 0 0.361 0.295 0.655 0.659 0.655 0.36 0 0.655-0.294 0.655-0.655C43.242 57.045 42.947 56.751 42.587 56.751z" data-fill-palette-color="accent"></path></g></g></g><g fill="#ffd230" data-fill-palette-color="accent"><g fill="#ffd230" data-fill-palette-color="accent"><g fill="#ffd230" data-fill-palette-color="accent"><path fill="#ffd230" d="M46.603 59.068c-0.917 0-1.663-0.745-1.663-1.659 0-0.917 0.746-1.663 1.663-1.663 0.914 0 1.659 0.745 1.659 1.663C48.262 58.324 47.517 59.068 46.603 59.068zM46.603 56.751c-0.364 0-0.659 0.294-0.659 0.659 0 0.361 0.295 0.655 0.659 0.655 0.36 0 0.655-0.294 0.655-0.655C47.258 57.045 46.963 56.751 46.603 56.751z" data-fill-palette-color="accent"></path></g></g><g fill="#ffd230" data-fill-palette-color="accent"><g fill="#ffd230" data-fill-palette-color="accent"><path fill="#ffd230" d="M38.571 59.068c-0.918 0-1.663-0.745-1.663-1.659 0-0.917 0.745-1.663 1.663-1.663 0.913 0 1.659 0.745 1.659 1.663C40.23 58.324 39.484 59.068 38.571 59.068zM38.571 56.751c-0.364 0-0.659 0.294-0.659 0.659 0 0.361 0.295 0.655 0.659 0.655 0.36 0 0.655-0.294 0.655-0.655C39.227 57.045 38.932 56.751 38.571 56.751z" data-fill-palette-color="accent"></path></g></g></g></g><g fill="#ffd230" data-fill-palette-color="accent"><g fill="#ffd230" data-fill-palette-color="accent"><g fill="#ffd230" data-fill-palette-color="accent"><g fill="#ffd230" data-fill-palette-color="accent"><path fill="#ffd230" d="M70.148 37.245c0.141-0.533 0.234-1.066 0.297-1.592 0.055-0.482-0.242-0.933-0.705-1.075-1.766-0.529-2.706-2.847-2.106-5.168 0.122-0.463-0.231-1.004-0.663-1.216-0.141-0.067-0.289-0.133-0.45-0.177L55.01 24.931c-0.188-0.051-0.352-0.063-0.564-0.079-0.447-0.039-0.779 0.196-0.969 0.545 0.153 0.945 0.491 1.789 1.027 2.423 0.157-0.274 0.35-0.518 0.475-0.819l10.529 2.823c-0.368 2.726 0.766 5.263 2.828 6.341-0.035 0.185-0.078 0.373-0.129 0.561l-7.502 27.984c-0.048 0.188-0.102 0.369-0.165 0.549-2.329-0.094-4.589 1.569-5.616 4.079l-3.349-0.498L45.61 68.99l9.274 2.42c0.188 0.051 0.354 0.062 0.479 0.07l0.224 0.016-0.138-0.008c0.047 0.004 0.094 0.008 0.138 0.008 0.443 0 0.843-0.298 0.969-0.737 0.632-2.278 2.62-3.839 4.407-3.423 0.463 0.125 0.957-0.133 1.149-0.577 0.208-0.486 0.392-0.996 0.538-1.529L70.148 37.245z" data-fill-palette-color="accent"></path><path fill="#ffd230" d="M55.587 72.5l-0.22-0.012c-0.274-0.02-0.494-0.043-0.745-0.11l-16.153-4.215 13.083-0.326 2.78 0.4c1.164-2.219 3.239-3.729 5.447-3.957l7.412-27.643c-1.789-1.278-2.828-3.565-2.75-6.059l-8.973-2.408-0.803 1.396-0.926-1.099c-0.636-0.746-1.067-1.753-1.256-2.909l-0.055-0.337 0.165-0.302c0.36-0.671 1.02-1.075 1.753-1.075 0.459 0.028 0.675 0.052 0.926 0.118l11.506 3.086c0.223 0.059 0.428 0.146 0.619 0.239 0.805 0.392 1.467 1.384 1.208 2.377-0.458 1.772 0.192 3.584 1.424 3.953 0.929 0.283 1.521 1.188 1.411 2.149-0.066 0.577-0.168 1.157-0.325 1.737l-7.498 27.984c-0.157 0.584-0.356 1.137-0.584 1.667-0.322 0.741-1.039 1.215-1.831 1.215l0 0-0.502-0.067c-0.083-0.019-0.204-0.031-0.326-0.031-1.173 0-2.424 1.208-2.852 2.753C57.273 71.896 56.477 72.5 55.587 72.5zM55.587 71.496v-1.003c-0.004 0-0.004 0-0.004 0 0.056-0.193 0.114-0.381 0.185-0.565l-0.212 0.521-0.882-0.133 0.467 0.122c0.098 0.027 0.184 0.035 0.285 0.039l0.035 0.679 0.048-0.671 0.011 0.168 0.016-0.165L55.587 71.496zM57.736 67.222c-0.73 0.553-1.342 1.317-1.765 2.228C56.398 68.543 57.014 67.778 57.736 67.222zM69.246 36.716c-0.023 0.09-0.047 0.184-0.071 0.274l-7.502 27.98c-0.035 0.149-0.078 0.302-0.129 0.455 0.051-0.153 0.094-0.306 0.138-0.458l7.498-27.98C69.203 36.896 69.223 36.806 69.246 36.716zM66.614 29.135l-0.11 0.824c-0.312 2.302 0.612 4.435 2.299 5.317l0.635 0.333c0.004-0.023 0.008-0.051 0.012-0.074-2.27-0.679-3.521-3.542-2.788-6.376C66.646 29.151 66.63 29.143 66.614 29.135zM54.729 25.896l11.557 3.098c-0.008-0.004-0.016-0.004-0.023-0.008L54.752 25.9C54.744 25.9 54.736 25.896 54.729 25.896z" data-fill-palette-color="accent"></path></g></g></g></g><g fill="#ffd230" data-fill-palette-color="accent"><g fill="#ffd230" data-fill-palette-color="accent"><polygon fill="none" points="56.975,33.358 56.975,40.971 58.877,33.869    "></polygon></g><g fill="#ffd230" data-fill-palette-color="accent"><path fill="none" d="M59.254 43.665c0.156 0.02 0.313 0.043 0.471 0.04l2.36-8.824c-0.126-0.083-0.274-0.137-0.423-0.2L59.254 43.665z"></path></g><g fill="#ffd230" data-fill-palette-color="accent"><path fill="none" d="M62.014 42.1l1.256-4.683c0.188-0.709-0.059-1.424-0.549-1.988l-2.173 8.118C61.254 43.3 61.826 42.81 62.014 42.1z"></path></g><g fill="#ffd230" data-fill-palette-color="accent"><polygon fill="none" points="57.145,43.269 58.504,43.551 60.951,34.421 59.606,34.065    "></polygon></g><g fill="#ffd230" data-fill-palette-color="accent"><path d="M61.764 34.3l-0.102 0.381c0.148 0.062 0.297 0.117 0.423 0.2l0.067-0.239c0.047-0.177 0.246-0.274 0.45-0.223 0.087 0.023 0.153 0.082 0.204 0.145-0.381-0.294-0.816-0.538-1.321-0.675C61.686 33.943 61.811 34.127 61.764 34.3z" fill="#ffd230" data-fill-palette-color="accent"></path></g><g fill="#ffd230" data-fill-palette-color="accent"><path d="M59.653 43.955l0.071-0.251c-0.157 0.003-0.314-0.02-0.471-0.04l-0.103 0.381c-0.046 0.176-0.243 0.274-0.447 0.22 0.491 0.129 0.974 0.145 1.436 0.086-0.062 0.019-0.133 0.039-0.204 0.019C59.732 44.316 59.606 44.131 59.653 43.955z" fill="#ffd230" data-fill-palette-color="accent"></path></g><g fill="#ffd230" data-fill-palette-color="accent"><path d="M61.764 34.3c0.047-0.172-0.078-0.356-0.278-0.412l-4.511-1.208v0.678l1.902 0.51-1.902 7.102v2.643 0.29l1.729 0.361c0.204 0.054 0.401-0.043 0.447-0.22l0.103-0.381 2.408-8.984L61.764 34.3zM58.504 43.551l-1.359-0.282 2.462-9.204 1.345 0.356L58.504 43.551z" fill="#ffd230" data-fill-palette-color="accent"></path><path d="M62.834 34.59c-0.004-0.012-0.02-0.016-0.027-0.027-0.051-0.063-0.117-0.122-0.204-0.145-0.204-0.051-0.403 0.046-0.45 0.223l-0.067 0.239-2.36 8.824-0.071 0.251c-0.047 0.176 0.079 0.361 0.282 0.415 0.071 0.02 0.142 0 0.204-0.019 0.035-0.008 0.063-0.008 0.095-0.024 1.199-0.18 2.211-0.917 2.51-2.031l1.255-4.687C64.297 36.496 63.787 35.347 62.834 34.59zM62.014 42.1c-0.188 0.71-0.76 1.2-1.466 1.447l2.173-8.118c0.49 0.564 0.736 1.279 0.549 1.988L62.014 42.1z" fill="#ffd230" data-fill-palette-color="accent"></path></g></g></g></svg></g></svg></g></svg></g><defs></defs></svg><rect width="395.52" height="158.4776330542189" fill="none" stroke="none" visibility="hidden"></rect></g></svg></g></svg>